<svg width="52" height="52" viewBox="0 0 52 52" fill="none" xmlns="http://www.w3.org/2000/svg">
<circle cx="26" cy="26" r="26" fill="#FCF5F8"/>
<path d="M34.7421 18.1691C34.0978 18.0592 33.4454 18.0027 32.7917 18C30.5611 17.9982 28.3771 18.6315 26.5 19.8244C24.618 18.6472 22.4344 18.0294 20.2083 18.0445C19.5546 18.0472 18.9022 18.1037 18.2579 18.2136C18.0469 18.2496 17.8558 18.3591 17.719 18.5222C17.5823 18.6854 17.5088 18.8915 17.5119 19.1036V29.7832C17.51 29.914 17.5372 30.0436 17.5916 30.1627C17.646 30.2819 17.7263 30.3877 17.8267 30.4727C17.9271 30.5577 18.0451 30.6197 18.1725 30.6544C18.2999 30.689 18.4334 30.6954 18.5635 30.6732C19.8515 30.4524 21.1712 30.489 22.4446 30.7809C23.7181 31.0729 24.9197 31.6142 25.9787 32.373L26.0865 32.4353H26.1854C26.2851 32.4765 26.392 32.4976 26.5 32.4976C26.608 32.4976 26.7149 32.4765 26.8146 32.4353H26.9135L27.0213 32.373C28.0729 31.5972 29.271 31.0384 30.5448 30.7296C31.8185 30.4208 33.1419 30.3683 34.4365 30.5753C34.5666 30.5975 34.7001 30.5911 34.8275 30.5565C34.9548 30.5218 35.0729 30.4598 35.1733 30.3748C35.2737 30.2898 35.354 30.184 35.4084 30.0648C35.4628 29.9457 35.49 29.8161 35.4881 29.6853V19.0057C35.4787 18.8029 35.3996 18.6094 35.264 18.4572C35.1283 18.3051 34.9441 18.2034 34.7421 18.1691ZM25.6012 29.9968C23.9383 29.1306 22.0873 28.6785 20.2083 28.6797C19.9117 28.6797 19.6151 28.6797 19.3095 28.6797V19.7799C19.6089 19.7629 19.909 19.7629 20.2083 19.7799C22.1259 19.7778 24.0015 20.335 25.6012 21.3819V29.9968ZM33.6905 28.7152C33.3849 28.7152 33.0883 28.7152 32.7917 28.7152C30.9127 28.7141 29.0617 29.1662 27.3988 30.0324V21.3819C28.9985 20.335 30.8741 19.7778 32.7917 19.7799C33.091 19.7629 33.3911 19.7629 33.6905 19.7799V28.7152ZM34.7421 32.4086C34.0978 32.2987 33.4454 32.2422 32.7917 32.2395C30.5611 32.2377 28.3771 32.871 26.5 34.064C24.6229 32.871 22.4389 32.2377 20.2083 32.2395C19.5546 32.2422 18.9022 32.2987 18.2579 32.4086C18.1409 32.427 18.0288 32.4681 17.9279 32.5296C17.827 32.591 17.7393 32.6716 17.67 32.7668C17.6007 32.8619 17.551 32.9696 17.5239 33.0838C17.4968 33.198 17.4927 33.3164 17.5119 33.4321C17.5576 33.6632 17.6939 33.867 17.891 33.9988C18.0881 34.1305 18.33 34.1796 18.5635 34.1352C19.8515 33.9144 21.1712 33.951 22.4446 34.2429C23.7181 34.5349 24.9197 35.0762 25.9787 35.835C26.1309 35.9423 26.3131 36 26.5 36C26.6869 36 26.8691 35.9423 27.0213 35.835C28.0803 35.0762 29.2819 34.5349 30.5554 34.2429C31.8288 33.951 33.1485 33.9144 34.4365 34.1352C34.67 34.1796 34.9119 34.1305 35.109 33.9988C35.3061 33.867 35.4424 33.6632 35.4881 33.4321C35.5073 33.3164 35.5032 33.198 35.4761 33.0838C35.449 32.9696 35.3993 32.8619 35.33 32.7668C35.2607 32.6716 35.173 32.591 35.0721 32.5296C34.9712 32.4681 34.8591 32.427 34.7421 32.4086Z" fill="#E6007E"/>
</svg>
