<svg width="64" height="64" viewBox="0 0 64 64" fill="none" xmlns="http://www.w3.org/2000/svg">
<path d="M16 0.5H48C56.5604 0.5 63.5 7.43959 63.5 16V48C63.5 56.5604 56.5604 63.5 48 63.5H16C7.43959 63.5 0.5 56.5604 0.5 48V16C0.5 7.43959 7.43959 0.5 16 0.5Z" fill="white"/>
<path d="M16 0.5H48C56.5604 0.5 63.5 7.43959 63.5 16V48C63.5 56.5604 56.5604 63.5 48 63.5H16C7.43959 63.5 0.5 56.5604 0.5 48V16C0.5 7.43959 7.43959 0.5 16 0.5Z" stroke="#E6007E"/>
<path d="M42.6663 33.3333C42.6663 39.9999 37.9997 43.3333 32.453 45.2666C32.1626 45.365 31.8471 45.3603 31.5597 45.2533C25.9997 43.3333 21.333 39.9999 21.333 33.3333V23.9999C21.333 23.6463 21.4735 23.3072 21.7235 23.0571C21.9736 22.8071 22.3127 22.6666 22.6663 22.6666C25.333 22.6666 28.6663 21.0666 30.9863 19.0399C31.2688 18.7986 31.6281 18.666 31.9997 18.666C32.3712 18.666 32.7305 18.7986 33.013 19.0399C35.3463 21.0799 38.6663 22.6666 41.333 22.6666C41.6866 22.6666 42.0258 22.8071 42.2758 23.0571C42.5259 23.3072 42.6663 23.6463 42.6663 23.9999V33.3333Z" stroke="#E6007E" stroke-width="3" stroke-linecap="round" stroke-linejoin="round"/>
</svg>
