<svg width="52" height="52" viewBox="0 0 52 52" fill="none" xmlns="http://www.w3.org/2000/svg">
<path d="M52 26C52 40.3594 40.3594 52 26 52C11.6406 52 -4.8321e-09 40.3594 -3.1129e-09 26C-1.39369e-09 11.6406 11.6406 1.39369e-09 26 3.1129e-09C40.3594 4.8321e-09 52 11.6406 52 26Z" fill="#FCF5F8"/>
<path d="M38.914 25.6C38.7993 25.5 38.7993 25.4 38.6846 25.3L36.3907 23.3C35.9319 22.9 35.2437 22.9 34.7849 23.3C34.3262 23.7 34.3262 24.3 34.7849 24.7L35.129 25L32.147 25C31.4588 25 31 25.4 31 26C31 26.6 31.4588 27 32.147 27L35.129 27L34.7849 27.3C34.3262 27.7 34.3262 28.3 34.7849 28.7C35.0143 28.9 35.3584 29 35.5878 29C35.8172 29 36.1613 28.9 36.3907 28.7L38.6846 26.7C38.7993 26.6 38.914 26.5 38.914 26.4C39.0287 26.1 39.0287 25.9 38.914 25.6Z" fill="#E6007E"/>
<path d="M32.8571 29.4865C32.1714 29.4865 31.7143 29.9405 31.7143 30.6216L31.7143 31.7568C31.7143 32.4378 31.2571 32.8919 30.5714 32.8919L29.4286 32.8919L29.4286 23.1297C29.4286 21.6541 28.5143 20.4054 27.2571 19.9514L24.5 19.2703L30.5714 19.2703C31.2571 19.2703 31.7143 19.7243 31.7143 20.4054L31.7143 21.5405C31.7143 22.2216 32.1714 22.6757 32.8571 22.6757C33.5429 22.6757 34 22.2216 34 21.5405L34 20.4054C34 18.4757 32.5143 17 30.5714 17L19.1429 17C19.0286 17 18.9143 17 18.8 17.1135C18.6857 17.1135 18.5714 17.227 18.5714 17.227L18.4571 17.3405C18.3429 17.3405 18.2286 17.4541 18.2286 17.5676L18.2286 17.6811C18.1143 17.6811 18 17.7946 18 17.9081L18 34.027C18 34.4811 18.3429 34.9351 18.6857 35.0486L26.2286 37.8865C26.4571 38 26.8 38 27.0286 38C27.4857 38 27.9429 37.8865 28.2857 37.5459C28.8571 37.0919 29.3143 36.4108 29.3143 35.7297L29.3143 35.1622L30.4571 35.1622C32.4 35.1622 33.8857 33.6865 33.8857 31.7568L33.8857 30.6216C34 30.0541 33.5429 29.4865 32.8571 29.4865ZM20 32.8919L20 19.5L26.3429 21.9946C26.8 22.2216 27.1429 22.6757 27.1429 23.1297L27.1429 35.7297L20 32.8919Z" fill="#E6007E"/>
<path d="M19.0098 17.0066C19.0541 17 19.0985 17 19.1429 17C19.0975 17 19.0531 17.0023 19.0098 17.0066C18.9398 17.0171 18.8699 17.0441 18.8 17.1135C18.6857 17.1135 18.5714 17.227 18.5714 17.227L18.4571 17.3405C18.3429 17.3405 18.2286 17.4541 18.2286 17.5676L18.2286 17.6811C18.1143 17.6811 18 17.7946 18 17.9081C18 17.5453 18.3986 17.0682 19.0098 17.0066Z" fill="#E6007E"/>
</svg>
