<svg width="48" height="49" viewBox="0 0 48 49" fill="none" xmlns="http://www.w3.org/2000/svg">
<rect y="0.5" width="48" height="48" rx="8" fill="#F7F8FB"/>
<path fill-rule="evenodd" clip-rule="evenodd" d="M28.8032 22.8636H26.4026C25.9606 22.8636 25.6024 22.4973 25.6024 22.0455C25.6024 21.5936 25.9606 21.2273 26.4026 21.2273H28.8032C29.2452 21.2273 29.6034 21.5936 29.6034 22.0455C29.6034 22.4973 29.2452 22.8636 28.8032 22.8636ZM21.6013 21.2273H20.8011V20.4091C20.8011 19.9572 20.4428 19.5909 20.0008 19.5909C19.5589 19.5909 19.2006 19.9572 19.2006 20.4091V21.2273H18.4004C17.9585 21.2273 17.6002 21.5936 17.6002 22.0455C17.6002 22.4973 17.9585 22.8636 18.4004 22.8636H19.2006V23.6818C19.2006 24.1337 19.5589 24.5 20.0008 24.5C20.4428 24.5 20.8011 24.1337 20.8011 23.6818V22.8636H21.6013C22.0432 22.8636 22.4015 22.4973 22.4015 22.0455C22.4015 21.5936 22.0432 21.2273 21.6013 21.2273ZM35.353 31.9301C34.7425 32.8215 33.7776 33.391 32.7174 33.486C31.6572 33.5809 30.6102 33.1914 29.8575 32.422C29.8455 32.4098 29.8335 32.3975 29.8225 32.3842L25.8504 27.7727H22.1494L18.1814 32.3842L18.1463 32.422C17.4704 33.1117 16.5546 33.4993 15.5997 33.5C14.5355 33.4996 13.526 33.018 12.8421 32.1843C12.1582 31.3507 11.87 30.2505 12.0547 29.179C12.0542 29.1742 12.0542 29.1694 12.0547 29.1647L13.6922 20.5645C14.1952 17.6366 16.6822 15.5008 19.5897 15.5H28.4031C31.3007 15.5047 33.7824 17.6228 34.3047 20.5369C34.3047 20.5431 34.3047 20.5492 34.3047 20.5553L35.9421 29.1636C35.9426 29.1684 35.9426 29.1732 35.9421 29.178C36.1133 30.139 35.9011 31.1301 35.353 31.9301ZM28.4031 26.1364C30.8338 26.1364 32.8043 24.1216 32.8043 21.6364C32.8043 19.1511 30.8338 17.1364 28.4031 17.1364H19.5897C17.4566 17.1383 15.6335 18.7074 15.2676 20.856V20.8693L13.6291 29.4694C13.4806 30.3442 13.9009 31.2171 14.6695 31.6301C15.4382 32.0431 16.3797 31.902 17 31.2807L21.1932 26.4135C21.345 26.2374 21.5636 26.1364 21.7933 26.1364H28.4031ZM34.3747 29.4694L33.5005 24.8672C32.4073 26.672 30.4794 27.7709 28.4031 27.7727H27.983L31.0038 31.2817C31.4658 31.7412 32.1153 31.9462 32.7503 31.833C33.8359 31.637 34.5629 30.58 34.3747 29.4694Z" fill="#828591"/>
</svg>
