<svg width="33" height="32" viewBox="0 0 33 32" fill="none" xmlns="http://www.w3.org/2000/svg">
<path d="M5.833 18.6675C5.58068 18.6684 5.33331 18.5976 5.1196 18.4635C4.9059 18.3294 4.73464 18.1373 4.62573 17.9097C4.51682 17.6821 4.47472 17.4283 4.50433 17.1777C4.53394 16.9272 4.63404 16.6901 4.793 16.4942L17.993 2.8942C18.092 2.77991 18.2269 2.70268 18.3756 2.67518C18.5243 2.64768 18.678 2.67155 18.8113 2.74287C18.9446 2.8142 19.0498 2.92873 19.1094 3.06768C19.1691 3.20663 19.1798 3.36173 19.1397 3.50754L16.5797 11.5342C16.5042 11.7362 16.4788 11.9536 16.5058 12.1675C16.5327 12.3815 16.6112 12.5858 16.7345 12.7628C16.8577 12.9398 17.022 13.0842 17.2134 13.1837C17.4047 13.2833 17.6173 13.3349 17.833 13.3342H27.1663C27.4186 13.3333 27.666 13.4041 27.8797 13.5382C28.0934 13.6724 28.2647 13.8644 28.3736 14.092C28.4825 14.3196 28.5246 14.5734 28.495 14.824C28.4654 15.0746 28.3653 15.3116 28.2063 15.5075L15.0063 29.1075C14.9073 29.2218 14.7724 29.2991 14.6237 29.3266C14.475 29.3541 14.3214 29.3302 14.188 29.2589C14.0547 29.1875 13.9496 29.073 13.8899 28.9341C13.8302 28.7951 13.8196 28.64 13.8597 28.4942L16.4197 20.4675C16.4952 20.2655 16.5205 20.0482 16.4935 19.8342C16.4666 19.6202 16.3881 19.416 16.2649 19.239C16.1416 19.062 15.9773 18.9175 15.786 18.818C15.5946 18.7185 15.382 18.6668 15.1663 18.6675H5.833Z" stroke="#E6007E" stroke-width="2.5" stroke-linecap="round" stroke-linejoin="round"/>
</svg>
