<svg width="64" height="64" viewBox="0 0 64 64" fill="none" xmlns="http://www.w3.org/2000/svg">
<path d="M16 0.5H48C56.5604 0.5 63.5 7.43959 63.5 16V48C63.5 56.5604 56.5604 63.5 48 63.5H16C7.43959 63.5 0.5 56.5604 0.5 48V16C0.5 7.43959 7.43959 0.5 16 0.5Z" fill="white"/>
<path d="M16 0.5H48C56.5604 0.5 63.5 7.43959 63.5 16V48C63.5 56.5604 56.5604 63.5 48 63.5H16C7.43959 63.5 0.5 56.5604 0.5 48V16C0.5 7.43959 7.43959 0.5 16 0.5Z" stroke="#E6007E"/>
<path d="M45.0681 29.3333C45.6771 32.3217 45.2431 35.4286 43.8386 38.1357C42.4341 40.8429 40.144 42.9867 37.3502 44.2097C34.5563 45.4328 31.4276 45.661 28.4859 44.8565C25.5441 44.0519 22.9671 42.2632 21.1845 39.7885C19.4019 37.3139 18.5216 34.303 18.6904 31.2578C18.8591 28.2127 20.0666 25.3174 22.1117 23.0549C24.1567 20.7923 26.9156 19.2992 29.9282 18.8246C32.9409 18.35 36.0252 18.9225 38.6668 20.4467" stroke="#E6007E" stroke-width="3" stroke-linecap="round" stroke-linejoin="round"/>
<path d="M28 30.6654L32 34.6654L45.3333 21.332" stroke="#E6007E" stroke-width="3" stroke-linecap="round" stroke-linejoin="round"/>
</svg>
