<svg width="25" height="25" viewBox="0 0 25 25" fill="none" xmlns="http://www.w3.org/2000/svg">
<path d="M20.4375 18.5L7.15625 5.5M11.4062 10.6494C11.0756 11.0062 10.875 11.4748 10.875 11.9881C10.875 13.1059 11.8264 14.0121 13 14.0121C13.5411 14.0121 14.035 13.8195 14.4102 13.5023M20.4719 14.0121C21.2034 12.9402 21.5 12.066 21.5 12.066C21.5 12.066 19.5657 6.02 13 6.02C12.6314 6.02 12.2774 6.03906 11.9375 6.07503M17.7812 16.6362C16.5617 17.3977 14.9916 17.9363 13 17.9044C6.51603 17.8006 4.5 12.066 4.5 12.066C4.5 12.066 5.43664 9.13833 8.21875 7.35754" stroke="#262C36" stroke-width="1.3" stroke-linecap="round"/>
</svg>
