<svg width="32" height="32" viewBox="0 0 32 32" fill="none" xmlns="http://www.w3.org/2000/svg">
<path d="M4 20.0007C4 19.2934 4.28095 18.6151 4.78105 18.115C5.28115 17.6149 5.95942 17.334 6.66667 17.334H25.3333C26.0406 17.334 26.7189 17.6149 27.219 18.115C27.719 18.6151 28 19.2934 28 20.0007V25.334C28 26.0412 27.719 26.7195 27.219 27.2196C26.7189 27.7197 26.0406 28.0007 25.3333 28.0007H6.66667C5.95942 28.0007 5.28115 27.7197 4.78105 27.2196C4.28095 26.7195 4 26.0412 4 25.334V20.0007Z" stroke="#E6007E" stroke-width="2.5" stroke-linecap="round" stroke-linejoin="round"/>
<path d="M22.667 22.666V22.6793" stroke="#E6007E" stroke-width="2.5" stroke-linecap="round" stroke-linejoin="round"/>
<path d="M17.333 22.666V22.6793" stroke="#E6007E" stroke-width="2.5" stroke-linecap="round" stroke-linejoin="round"/>
<path d="M20 17.3327V14.666" stroke="#E6007E" stroke-width="2.5" stroke-linecap="round" stroke-linejoin="round"/>
<path d="M15.667 11.6656C16.1608 10.9774 16.8114 10.4167 17.5649 10.0299C18.3185 9.64315 19.1533 9.44141 20.0003 9.44141C20.8473 9.44141 21.6822 9.64315 22.4357 10.0299C23.1893 10.4167 23.8399 10.9774 24.3337 11.6656" stroke="#E6007E" stroke-width="2.5" stroke-linecap="round" stroke-linejoin="round"/>
<path d="M11.333 8.66716C12.3206 7.29076 13.6218 6.16936 15.1289 5.3958C16.636 4.62223 18.3056 4.21875 19.9997 4.21875C21.6937 4.21875 23.3634 4.62223 24.8705 5.3958C26.3776 6.16936 27.6788 7.29076 28.6663 8.66716" stroke="#E6007E" stroke-width="2.5" stroke-linecap="round" stroke-linejoin="round"/>
</svg>
