<svg width="60" height="60" viewBox="0 0 60 60" fill="none" xmlns="http://www.w3.org/2000/svg">
<circle cx="30" cy="30" r="30" fill="#FCF5F8"/>
<path d="M40.9894 19.2255C40.1304 19.079 39.2605 19.0035 38.3889 19C35.4149 18.9976 32.5029 19.842 30 21.4326C27.4907 19.8629 24.5792 19.0392 21.6111 19.0593C20.7395 19.0629 19.8696 19.1383 19.0106 19.2848C18.7292 19.3328 18.4744 19.4788 18.292 19.6963C18.1097 19.9139 18.0117 20.1887 18.0159 20.4714V34.711C18.0133 34.8853 18.0496 35.0581 18.1221 35.217C18.1947 35.3759 18.3017 35.517 18.4356 35.6303C18.5694 35.7436 18.7269 35.8263 18.8967 35.8725C19.0665 35.9187 19.2445 35.9272 19.418 35.8976C21.1354 35.6032 22.8949 35.652 24.5929 36.0413C26.2908 36.4305 27.893 37.1523 29.3049 38.164L29.4487 38.2471H29.5806C29.7135 38.3019 29.856 38.3302 30 38.3302C30.144 38.3302 30.2865 38.3019 30.4194 38.2471H30.5513L30.6951 38.164C32.0972 37.1296 33.6947 36.3845 35.393 35.9728C37.0913 35.561 38.8558 35.4911 40.582 35.767C40.7555 35.7967 40.9335 35.7881 41.1033 35.7419C41.2731 35.6957 41.4306 35.6131 41.5644 35.4998C41.6983 35.3865 41.8053 35.2453 41.8779 35.0864C41.9504 34.9276 41.9867 34.7548 41.9841 34.5804V20.3409C41.9716 20.0705 41.8662 19.8125 41.6853 19.6096C41.5044 19.4067 41.2588 19.2712 40.9894 19.2255ZM28.8016 34.9957C26.5844 33.8408 24.1164 33.238 21.6111 33.2395C21.2157 33.2395 20.8202 33.2395 20.4127 33.2395V21.3733C20.8119 21.3505 21.212 21.3505 21.6111 21.3733C24.1678 21.3705 26.6687 22.1133 28.8016 23.5092V34.9957ZM39.5873 33.287C39.1798 33.287 38.7843 33.287 38.3889 33.287C35.8836 33.2855 33.4156 33.8882 31.1984 35.0432V23.5092C33.3313 22.1133 35.8322 21.3705 38.3889 21.3733C38.788 21.3505 39.1881 21.3505 39.5873 21.3733V33.287ZM40.9894 38.2115C40.1304 38.065 39.2605 37.9896 38.3889 37.986C35.4149 37.9836 32.5029 38.828 30 40.4186C27.4971 38.828 24.5851 37.9836 21.6111 37.986C20.7395 37.9896 19.8696 38.065 19.0106 38.2115C18.8546 38.236 18.705 38.2908 18.5705 38.3728C18.4359 38.4547 18.3191 38.5622 18.2267 38.689C18.1342 38.8158 18.068 38.9595 18.0318 39.1117C17.9957 39.264 17.9903 39.4218 18.0159 39.5761C18.0768 39.8843 18.2586 40.156 18.5214 40.3317C18.7842 40.5074 19.1066 40.5728 19.418 40.5136C21.1354 40.2191 22.8949 40.268 24.5929 40.6572C26.2908 41.0465 27.893 41.7682 29.3049 42.78C29.5079 42.9231 29.7508 43 30 43C30.2492 43 30.4921 42.9231 30.6951 42.78C32.107 41.7682 33.7092 41.0465 35.4071 40.6572C37.1051 40.268 38.8646 40.2191 40.582 40.5136C40.8934 40.5728 41.2158 40.5074 41.4786 40.3317C41.7414 40.156 41.9232 39.8843 41.9841 39.5761C42.0097 39.4218 42.0043 39.264 41.9682 39.1117C41.932 38.9595 41.8658 38.8158 41.7733 38.689C41.6809 38.5622 41.5641 38.4547 41.4295 38.3728C41.295 38.2908 41.1454 38.236 40.9894 38.2115Z" fill="#E6007E"/>
</svg>
