<svg width="64" height="64" viewBox="0 0 64 64" fill="none" xmlns="http://www.w3.org/2000/svg">
<path d="M16 0.5H48C56.5604 0.5 63.5 7.43959 63.5 16V48C63.5 56.5604 56.5604 63.5 48 63.5H16C7.43959 63.5 0.5 56.5604 0.5 48V16C0.5 7.43959 7.43959 0.5 16 0.5Z" fill="white"/>
<path d="M16 0.5H48C56.5604 0.5 63.5 7.43959 63.5 16V48C63.5 56.5604 56.5604 63.5 48 63.5H16C7.43959 63.5 0.5 56.5604 0.5 48V16C0.5 7.43959 7.43959 0.5 16 0.5Z" stroke="#E6007E"/>
<path d="M32.0003 45.3346C39.3641 45.3346 45.3337 39.3651 45.3337 32.0013C45.3337 24.6375 39.3641 18.668 32.0003 18.668C24.6365 18.668 18.667 24.6375 18.667 32.0013C18.667 39.3651 24.6365 45.3346 32.0003 45.3346Z" stroke="#E6007E" stroke-width="2.6" stroke-linecap="round" stroke-linejoin="round"/>
<path d="M32.0003 18.668C28.5766 22.2628 26.667 27.037 26.667 32.0013C26.667 36.9656 28.5766 41.7398 32.0003 45.3346C35.424 41.7398 37.3337 36.9656 37.3337 32.0013C37.3337 27.037 35.424 22.2628 32.0003 18.668Z" stroke="#E6007E" stroke-width="2.6" stroke-linecap="round" stroke-linejoin="round"/>
<path d="M18.667 32H45.3337" stroke="#E6007E" stroke-width="2.6" stroke-linecap="round" stroke-linejoin="round"/>
</svg>
