<svg width="15" height="14" viewBox="0 0 15 14" fill="none" xmlns="http://www.w3.org/2000/svg">
<g opacity="0.5">
<rect x="0.5" width="14" height="14" rx="7" fill="#828591"/>
<path d="M7.16602 10.082C5.86172 10.082 4.92656 9.36016 4.90195 8.32656H6.14883C6.17344 8.76953 6.6 9.06484 7.17422 9.06484C7.76484 9.06484 8.19141 8.72852 8.1832 8.25273C8.19141 7.76875 7.75664 7.42422 7.05937 7.42422H6.50977V6.51367H7.05937C7.6418 6.51367 8.05195 6.19375 8.05195 5.72617C8.05195 5.275 7.70742 4.96328 7.18242 4.96328C6.65742 4.96328 6.22266 5.25859 6.20625 5.70977H5.025C5.04141 4.68438 5.96836 3.97891 7.18242 3.97891C8.42109 3.97891 9.24961 4.70898 9.24141 5.65234C9.24961 6.3168 8.78203 6.79258 8.11758 6.90742V6.95664C8.98711 7.06328 9.47109 7.59648 9.46289 8.33477C9.47109 9.35195 8.50312 10.082 7.16602 10.082Z" fill="white"/>
</g>
</svg>
