<svg width="86" height="65" viewBox="0 0 86 65" fill="none" xmlns="http://www.w3.org/2000/svg">
<path opacity="0.4" d="M55.665 34.9718L54.557 33.4471L54.5307 33.4662L54.5051 33.4862L55.665 34.9718ZM55.665 30.6489L54.4682 32.1049L54.552 32.1738L54.6432 32.2327L55.665 30.6489ZM40.1444 17.8914L41.3412 16.4354L41.2884 16.392L41.2326 16.3525L40.1444 17.8914ZM36.8906 19.7969L38.7754 19.792L38.7753 19.7772L38.7751 19.7625L36.8906 19.7969ZM36.9557 44.8568L35.071 44.8617L35.0711 44.9095L35.0737 44.9572L36.9557 44.8568ZM40.3288 46.9452L41.3194 48.5486L41.4072 48.4943L41.4887 48.4308L40.3288 46.9452ZM42.9986 62.5853V60.7006C35.8145 60.7006 27.9926 60.6993 21.4149 60.1549C18.1259 59.8828 15.2142 59.4795 12.8858 58.8943C10.4917 58.2926 8.99338 57.564 8.25482 56.8312L6.9273 58.1691L5.59978 59.507C7.08658 60.9822 9.41903 61.9097 11.967 62.5501C14.5807 63.207 17.7224 63.6318 21.104 63.9116C27.8676 64.4713 35.856 64.47 42.9986 64.47V62.5853ZM2.47656 32.4294H0.591817C0.591817 39.4835 0.587752 44.9652 1.16523 49.2271C1.75025 53.5447 2.96327 56.8909 5.59978 59.507L6.9273 58.1691L8.25482 56.8312C6.4406 55.031 5.42824 52.6152 4.90058 48.7209C4.36537 44.7709 4.36131 39.5909 4.36131 32.4294H2.47656ZM83.5206 32.4294H81.6359C81.6359 39.5909 81.6318 44.7709 81.0966 48.7209C80.569 52.6152 79.5566 55.031 77.7424 56.8312L79.0699 58.1691L80.3974 59.507C83.0339 56.8909 84.2469 53.5447 84.832 49.2271C85.4094 44.9652 85.4054 39.4835 85.4054 32.4294H83.5206ZM42.9986 62.5853V64.47C50.1412 64.47 58.1296 64.4713 64.8932 63.9116C68.2748 63.6318 71.4165 63.207 74.0302 62.5501C76.5782 61.9097 78.9106 60.9822 80.3974 59.507L79.0699 58.1691L77.7424 56.8312C77.0038 57.564 75.5055 58.2926 73.1114 58.8943C70.783 59.4795 67.8713 59.8828 64.5823 60.1549C58.0046 60.6993 50.1827 60.7006 42.9986 60.7006V62.5853ZM42.9986 2.27344V4.15818C50.1827 4.15818 58.0046 4.15945 64.5823 4.70379C67.8713 4.97598 70.783 5.37925 73.1114 5.96444C75.5055 6.56613 77.0038 7.29472 77.7424 8.02756L79.0699 6.68967L80.3974 5.35178C78.9106 3.8765 76.5782 2.949 74.0302 2.30864C71.4165 1.65176 68.2748 1.22699 64.8932 0.947142C58.1296 0.387423 50.1412 0.388692 42.9986 0.388692V2.27344ZM83.5206 32.4294H85.4054C85.4054 25.3752 85.4094 19.8936 84.832 15.6317C84.2469 11.3141 83.0339 7.96785 80.3974 5.35178L79.0699 6.68967L77.7424 8.02756C79.5566 9.82772 80.569 12.2436 81.0966 16.1378C81.6318 20.0878 81.6359 25.2679 81.6359 32.4294H83.5206ZM42.9986 2.27344V0.388692C35.856 0.388692 27.8676 0.387423 21.104 0.947142C17.7224 1.22699 14.5807 1.65176 11.967 2.30864C9.41903 2.949 7.08658 3.8765 5.59978 5.35178L6.9273 6.68967L8.25482 8.02756C8.99338 7.29472 10.4917 6.56613 12.8858 5.96444C15.2142 5.37925 18.1259 4.97598 21.4149 4.70379C27.9926 4.15945 35.8145 4.15818 42.9986 4.15818V2.27344ZM2.47656 32.4294H4.36131C4.36131 25.2679 4.36537 20.0878 4.90058 16.1378C5.42824 12.2436 6.4406 9.82772 8.25482 8.02756L6.9273 6.68967L5.59978 5.35178C2.96327 7.96785 1.75025 11.3141 1.16523 15.6317C0.587752 19.8936 0.591817 25.3752 0.591817 32.4294H2.47656ZM55.665 34.9718L56.7729 36.4965C57.9624 35.6321 59.0376 34.3779 59.0356 32.7456C59.0336 31.0756 57.9128 29.8561 56.6867 29.0651L55.665 30.6489L54.6432 32.2327C55.3947 32.7174 55.2663 32.9383 55.2661 32.7502C55.266 32.6821 55.2926 32.7005 55.2097 32.8255C55.1197 32.9612 54.9275 33.1779 54.557 33.4471L55.665 34.9718ZM55.665 30.6489L56.8618 29.1929L41.3412 16.4354L40.1444 17.8914L38.9476 19.3474L54.4682 32.1049L55.665 30.6489ZM40.1444 17.8914L41.2326 16.3525C40.0772 15.5355 38.4831 15.0974 37.0268 15.8564C35.5387 16.6321 34.9772 18.2428 35.0062 19.8314L36.8906 19.7969L38.7751 19.7625C38.7682 19.3857 38.8332 19.1977 38.8614 19.1374C38.8834 19.0905 38.8666 19.1483 38.7691 19.1991C38.6761 19.2476 38.621 19.2316 38.6599 19.2376C38.7073 19.2451 38.8466 19.2821 39.0563 19.4303L40.1444 17.8914ZM36.8906 19.7969L35.0059 19.8018L35.071 44.8617L36.9557 44.8568L38.8405 44.8519L38.7754 19.792L36.8906 19.7969ZM36.9557 44.8568L35.0737 44.9572C35.1508 46.4043 35.5752 48.0792 37.006 48.9322C38.5175 49.8333 40.1645 49.2621 41.3194 48.5486L40.3288 46.9452L39.3382 45.3417C38.9935 45.5547 38.7902 45.6099 38.7199 45.6207C38.6755 45.6276 38.7866 45.6052 38.9363 45.6945C39.0727 45.7758 39.0657 45.8461 39.0073 45.707C38.9448 45.5583 38.8647 45.2611 38.8378 44.7565L36.9557 44.8568ZM40.3288 46.9452L41.4887 48.4308L56.8248 36.4574L55.665 34.9718L54.5051 33.4862L39.169 45.4596L40.3288 46.9452Z" fill="white"/>
</svg>
