<svg width="49" height="49" viewBox="0 0 49 49" fill="none" xmlns="http://www.w3.org/2000/svg">
<rect x="0.398438" y="0.046875" width="48" height="48" rx="8" fill="#F7F8FB"/>
<path d="M13.3984 32.0469H13.4131M18.2873 32.0469C18.2873 30.8345 17.7722 29.6717 16.8554 28.8144C15.9386 27.9571 14.6951 27.4754 13.3984 27.4754M23.1762 32.0469C23.1762 29.622 22.1461 27.2965 20.3124 25.5819C18.4787 23.8673 15.9917 22.904 13.3984 22.904M28.0651 32.0469H31.7318C32.7042 32.0469 33.6369 31.6857 34.3245 31.0427C35.0121 30.3997 35.3984 29.5276 35.3984 28.6183V19.4754C35.3984 18.5661 35.0121 17.6941 34.3245 17.0511C33.6369 16.4081 32.7042 16.0469 31.7318 16.0469H17.0651C16.3128 16.0536 15.5809 16.2765 14.9687 16.6853C14.3565 17.0942 13.8936 17.6693 13.6429 18.3326" stroke="#828591" stroke-width="2" stroke-linecap="round" stroke-linejoin="round"/>
</svg>
