<svg width="48" height="49" viewBox="0 0 48 49" fill="none" xmlns="http://www.w3.org/2000/svg">
<rect y="0.5" width="48" height="48" rx="8" fill="#F7F8FB"/>
<path d="M32.625 28.6538C32.625 29.2061 33.0727 29.6538 33.625 29.6538C34.1773 29.6538 34.625 29.2061 34.625 28.6538H33.625H32.625ZM13.375 28.6538C13.375 29.2061 13.8227 29.6538 14.375 29.6538C14.9273 29.6538 15.375 29.2061 15.375 28.6538H14.375H13.375ZM16.7812 15.5V16.5H31.2188V15.5V14.5H16.7812V15.5ZM33.625 17.8432H32.625V28.6538H33.625H34.625V17.8432H33.625ZM14.375 28.6538H15.375V17.8432H14.375H13.375V28.6538H14.375ZM31.2188 15.5V16.5C32.0206 16.5 32.625 17.1262 32.625 17.8432H33.625H34.625C34.625 15.9719 33.0748 14.5 31.2188 14.5V15.5ZM16.7812 15.5V14.5C14.9252 14.5 13.375 15.9719 13.375 17.8432H14.375H15.375C15.375 17.1262 15.9794 16.5 16.7812 16.5V15.5ZM14.375 29.3462V30.3462H33.625V29.3462V28.3462H14.375V29.3462ZM35 30.7308H34V32.1154H35H36V30.7308H35ZM33.625 33.5V32.5H14.375V33.5V34.5H33.625V33.5ZM13 32.1154H14V30.7308H13H12V32.1154H13ZM14.375 33.5V32.5C14.1745 32.5 14 32.3344 14 32.1154H13H12C12 33.4258 13.0568 34.5 14.375 34.5V33.5ZM35 32.1154H34C34 32.3344 33.8255 32.5 33.625 32.5V33.5V34.5C34.9432 34.5 36 33.4258 36 32.1154H35ZM33.625 29.3462V30.3462C33.8255 30.3462 34 30.5118 34 30.7308H35H36C36 29.4204 34.9432 28.3462 33.625 28.3462V29.3462ZM14.375 29.3462V28.3462C13.0568 28.3462 12 29.4204 12 30.7308H13H14C14 30.5118 14.1745 30.3462 14.375 30.3462V29.3462Z" fill="#828591"/>
</svg>
