<svg width="60" height="60" viewBox="0 0 60 60" fill="none" xmlns="http://www.w3.org/2000/svg">
<path d="M60 30C60 46.5685 46.5685 60 30 60C13.4315 60 -5.5755e-09 46.5685 -3.59181e-09 30C-1.60811e-09 13.4315 13.4315 1.60811e-09 30 3.59181e-09C46.5685 5.5755e-09 60 13.4315 60 30Z" fill="#FCF5F8"/>
<path d="M43.9041 29.4473C43.7762 29.323 43.7762 29.1986 43.6482 29.0743L41.0891 26.5878C40.5773 26.0905 39.8095 26.0905 39.2977 26.5878C38.7859 27.0851 38.7859 27.8311 39.2977 28.3284L39.6816 28.7013L36.3548 28.7013C35.587 28.7013 35.0752 29.1986 35.0752 29.9446C35.0752 30.6905 35.587 31.1878 36.3548 31.1878L39.6816 31.1878L39.2977 31.5608C38.7859 32.0581 38.7859 32.804 39.2977 33.3013C39.5536 33.55 39.9375 33.6743 40.1934 33.6743C40.4493 33.6743 40.8332 33.55 41.0891 33.3013L43.6482 30.8148C43.7762 30.6905 43.9041 30.5662 43.9041 30.4419C44.0321 30.0689 44.0321 29.8202 43.9041 29.4473Z" fill="#E6007E"/>
<path d="M37.6342 33.6757C36.8665 33.6757 36.3547 34.173 36.3547 34.9189L36.3547 36.1622C36.3547 36.9081 35.8428 37.4054 35.0751 37.4054L33.7956 37.4054L33.7956 26.7135C33.7956 25.0973 32.7719 23.7297 31.3644 23.2324L29.3171 22.4865L35.0751 22.4865C35.8428 22.4865 36.3547 22.9838 36.3547 23.7297L36.3547 24.973C36.3547 25.7189 36.8665 26.2162 37.6342 26.2162C38.4019 26.2162 38.9138 25.7189 38.9138 24.973L38.9138 23.7297C38.9138 21.6162 37.2503 20 35.0751 20L22.2796 20C22.1516 20 22.0236 20 21.8957 20.1243C21.7677 20.1243 21.6398 20.2486 21.6398 20.2486L21.5118 20.373C21.3839 20.373 21.2559 20.4973 21.2559 20.6216L21.2559 20.7459C21.128 20.7459 21 20.8703 21 20.9946L21 38.6486C21 39.1459 21.3839 39.6432 21.7677 39.7676L30.2128 42.8757C30.4687 43 30.8526 43 31.1085 43C31.6203 43 32.1321 42.8757 32.516 42.5027C33.1558 42.0054 33.6676 41.2595 33.6676 40.5135L33.6676 39.8919L34.9472 39.8919C37.1224 39.8919 38.7858 38.2757 38.7858 36.1622L38.7858 34.9189C38.9138 34.2973 38.4019 33.6757 37.6342 33.6757ZM23.5591 37.7784L23.5591 22.9838L30.3408 25.4703C30.8526 25.7189 31.2364 26.2162 31.2364 26.7135L31.2364 40.5135L23.5591 37.7784Z" fill="#E6007E"/>
<path d="M22.1703 20.0029C22.2067 20 22.2431 20 22.2796 20C22.2421 20 22.2057 20.001 22.1703 20.0029C22.0787 20.0101 21.9872 20.0354 21.8957 20.1243C21.7677 20.1243 21.6398 20.2486 21.6398 20.2486L21.5118 20.373C21.3839 20.373 21.2559 20.4973 21.2559 20.6216L21.2559 20.7459C21.1383 20.7459 21.0206 20.8511 21.0024 20.9646C21.0014 20.9749 21.0006 20.9849 21 20.9946C21 20.9846 21.0008 20.9746 21.0024 20.9646C21.0355 20.6382 21.3089 20.0489 22.1703 20.0029Z" fill="#E6007E"/>
</svg>
