<svg width="33" height="30" viewBox="0 0 33 30" fill="none" xmlns="http://www.w3.org/2000/svg">
<path d="M16.3672 27.1875C14.7352 27.1875 13.1752 26.8755 11.6872 26.2515C10.2632 25.6435 8.99519 24.7835 7.88319 23.6715C6.77119 22.5595 5.91119 21.2915 5.30319 19.8675C4.67919 18.3795 4.36719 16.8195 4.36719 15.1875C4.36719 13.5555 4.67919 11.9955 5.30319 10.5075C5.91119 9.0835 6.77119 7.8155 7.88319 6.7035C8.99519 5.5915 10.2632 4.7315 11.6872 4.1235C13.1752 3.4995 14.7352 3.1875 16.3672 3.1875C17.9992 3.1875 19.5592 3.4995 21.0472 4.1235C22.4712 4.7315 23.7392 5.5915 24.8512 6.7035C25.9632 7.8155 26.8232 9.0835 27.4312 10.5075C28.0552 11.9955 28.3672 13.5555 28.3672 15.1875C28.3672 16.8195 28.0552 18.3795 27.4312 19.8675C26.8232 21.2915 25.9632 22.5595 24.8512 23.6715C23.7392 24.7835 22.4712 25.6435 21.0472 26.2515C19.5592 26.8755 17.9992 27.1875 16.3672 27.1875ZM13.6312 24.3795C12.4312 21.8515 11.7512 19.1875 11.5912 16.3875H6.83919C6.99919 17.6355 7.38719 18.8035 8.00319 19.8915C8.61919 20.9795 9.41119 21.9115 10.3792 22.6875C11.3472 23.4635 12.4312 24.0275 13.6312 24.3795ZM14.0152 16.3875C14.1912 19.2675 14.9752 21.9715 16.3672 24.4995C17.7592 21.9715 18.5432 19.2675 18.7192 16.3875H14.0152ZM25.8952 16.3875H21.1432C20.9832 19.1875 20.3112 21.8515 19.1272 24.3795C20.3112 24.0275 21.3872 23.4635 22.3552 22.6875C23.3232 21.9115 24.1152 20.9795 24.7312 19.8915C25.3472 18.8035 25.7352 17.6355 25.8952 16.3875ZM6.83919 13.9875H11.5912C11.7512 11.1875 12.4312 8.5235 13.6312 5.9955C12.4312 6.3475 11.3472 6.9115 10.3792 7.6875C9.41119 8.4635 8.61919 9.3955 8.00319 10.4835C7.38719 11.5715 6.99919 12.7395 6.83919 13.9875ZM14.0152 13.9875H18.7192C18.5432 11.1075 17.7592 8.4035 16.3672 5.8755C14.9752 8.4035 14.1912 11.1075 14.0152 13.9875ZM19.1272 5.9955C20.3112 8.5235 20.9832 11.1875 21.1432 13.9875H25.8952C25.7352 12.7395 25.3472 11.5715 24.7312 10.4835C24.1152 9.3955 23.3232 8.4635 22.3552 7.6875C21.3872 6.9115 20.3112 6.3475 19.1272 5.9955Z" fill="#E6007E"/>
</svg>
