<svg width="33" height="19" viewBox="0 0 33 19" fill="none" xmlns="http://www.w3.org/2000/svg">
<g clip-path="url(#clip0_116_12669)">
<path d="M21.3005 2.03125H12.6475V16.969H21.3005V2.03125Z" fill="#FF5F00"/>
<path d="M13.1965 9.5C13.1965 6.46955 14.6736 3.77057 16.9736 2.0311C15.2915 0.758997 13.1691 0 10.8621 0C5.40087 0 0.973633 4.25328 0.973633 9.5C0.973633 14.7467 5.40087 19 10.8621 19C13.1691 19 15.2915 18.241 16.9736 16.9689C14.6736 15.2293 13.1965 12.5304 13.1965 9.5Z" fill="#EB001B"/>
<path d="M32.9736 9.5C32.9736 14.7466 28.5464 19 23.0851 19C20.7782 19 18.6558 18.241 16.9736 16.9689C19.2738 15.2293 20.7507 12.5304 20.7507 9.5C20.7507 6.46955 19.2738 3.77057 16.9736 2.0311C18.6558 0.758997 20.7782 0 23.0851 0C28.5464 0 32.9736 4.25328 32.9736 9.5Z" fill="#F79E1B"/>
</g>
<defs>
<clipPath id="clip0_116_12669">
<rect width="32" height="19" fill="white" transform="translate(0.973633)"/>
</clipPath>
</defs>
</svg>
